<?xml version="1.0" encoding="UTF-8"?>
<svg id="Camada_2" data-name="Camada 2" xmlns="http://www.w3.org/2000/svg" version="1.1" xmlns:xlink="http://www.w3.org/1999/xlink" viewBox="0 0 149 149">
  <defs>
    <style>
      .cls-1 {
        fill: #000;
      }

      .cls-1, .cls-2, .cls-3 {
        stroke-width: 0px;
      }

      .cls-2, .cls-4 {
        fill: none;
      }

      .cls-5 {
        clip-path: url(#clippath-1);
      }

      .cls-6 {
        clip-path: url(#clippath);
      }

      .cls-4 {
        stroke: #fff;
        stroke-miterlimit: 10;
        stroke-width: .2px;
      }

      .cls-3 {
        fill: #fff;
      }
    </style>
    <clipPath id="clippath">
      <path class="cls-2" d="M74.5,0h0c41.1,0,74.5,33.4,74.5,74.5h0c0,41.1-33.4,74.5-74.5,74.5h0C33.4,149,0,115.6,0,74.5h0C0,33.4,33.4,0,74.5,0Z"/>
    </clipPath>
    <clipPath id="clippath-1">
      <path class="cls-2" d="M74.5,0h0c41.1,0,74.5,33.4,74.5,74.5h0c0,41.1-33.4,74.5-74.5,74.5h0C33.4,149,0,115.6,0,74.5h0C0,33.4,33.4,0,74.5,0Z"/>
    </clipPath>
  </defs>
  <circle class="cls-3" cx="74.5" cy="74.5" r="74.5"/>
  <g class="cls-6">
    <g>
      <g>
        <path class="cls-1" d="M119.1,89.7c6.8,0,12.7,2.6,17.5,7.9,4.8,5.3,7.2,11.7,7.2,19.2h7.2c0,9.8-3.1,18.1-9.4,24.9-6.3,6.8-13.8,10.3-22.6,10.3-36.7-.6-73.4-1.1-110.1-1.7-1.7-8.1-3.3-16.3-5-24.4,38.4.4,76.7.8,115.1,1.2,2.5,0,4.7-1,6.5-3s2.7-4.4,2.7-7.2-.9-5.2-2.7-7.2-4-2.9-6.5-2.9h-24.6c-8.8,0-16.3-3.4-22.6-10.3s-9.4-15.2-9.4-24.8h15c.2,4.8,2.5,9.1,7,12.7,4.5,3.7,9,5.5,13.5,5.5h21.1,0ZM99.4,84.2c-2.9,0-5.7-.8-8.2-2.4-2.6-1.6-4.6-3.8-6-6.6s-2.2-5.8-2.2-9.2h-15.6c0-9.7,3.2-17.9,9.4-24.7,6.3-6.8,13.8-10.3,22.6-10.3h55.9l-22.4,24.9h-33.5c-2.5,0-4.7,1-6.5,2.9s-2.7,4.3-2.7,7.1.4,3.7,1.2,5.2c.8,1.6,1.9,2.8,3.4,3.7,1.5.9,3,1.3,4.6,1.3h24.6c3.4,0,7,.9,10.8,2.8s7.3,4.3,10.5,7.5c7.1,7.3,10.7,15.6,10.7,24.9h-6.8c-.3-7.1-3.1-13.4-8.5-18.9-5.4-5.6-10.9-8.3-16.7-8.3h-24.6Z"/>
        <path class="cls-1" d="M48.6,17.4v41.5h10.6c-.1,6.1-1.2,12-3.4,17.7-2.2,5.6-5.1,10.7-8.9,15.1-3.8,4.4-8.3,8.2-13.4,11.3-8.4,4.9-17.5,7.4-27.4,7.4s-25.9-4.6-36.1-13.9L-1.3,84.2c2.4.7,4.8,1,7.3,1,7.6,0,14.1-2.7,19.4-7.9,5.3-5.3,8-11.6,8-19V17.4h15.2ZM33.4-1.7h25.7v56h-6V12.9h-19.8V-1.7Z"/>
        <polygon class="cls-3" points="83.9 62.5 81.3 62.5 78.9 61.7 76.7 60.2 75.1 58.1 74.2 55.4 74.2 52.7 75.1 50.2 76.6 48 78.8 46.5 81.3 45.7 83.9 45.7 86.5 46.5 88.6 48 90.2 50.2 91 52.7 91 55.4 90.2 57.9 88.6 60.1 86.5 61.7 83.9 62.5"/>
      </g>
      <g class="cls-5">
        <g>
          <g id="_Repetição_radial_" data-name=" Repetição radial ">
            <path class="cls-4" d="M-11.9,79.3c18.8-7,51.9-16.8,94.5-16.8s55.3,2.3,94.5,16.8c-18.8,7-51.9,16.8-94.5,16.8s-55.3-2.3-94.5-16.8Z"/>
          </g>
          <g id="_Repetição_radial_-2" data-name=" Repetição radial -2">
            <path class="cls-4" d="M-15,48.7c20.1-.8,54.6.1,95,13.3,19.4,6.3,51.9,19.3,84.7,45.3-20.1.8-54.6-.1-95-13.3-19.5-6.3-51.9-19.3-84.7-45.3Z"/>
          </g>
          <g id="_Repetição_radial_-3" data-name=" Repetição radial -3">
            <path class="cls-4" d="M-8.6,18.7c19.3,5.5,51.9,17,86.3,42.1,16.5,12.1,43.4,34.4,66.6,69.3-19.3-5.5-51.9-17-86.3-42.1C41.5,76,14.6,53.6-8.6,18.7Z"/>
          </g>
          <g id="_Repetição_radial_-4" data-name=" Repetição radial -4">
            <path class="cls-4" d="M6.8-7.8C23.5,3.4,50.8,24.5,75.8,59c12,16.6,30.7,46.2,42,86.6-16.7-11.2-44.1-32.3-69.1-66.8C36.7,62.2,18.1,32.5,6.8-7.8Z"/>
          </g>
          <g id="_Repetição_radial_-5" data-name=" Repetição radial -5">
            <path class="cls-4" d="M29.5-28.3c12.4,15.8,32,44.4,45.1,85,6.3,19.5,14.9,53.5,13.3,95.3-12.4-15.8-32-44.4-45.1-85-6.3-19.5-14.9-53.5-13.3-95.3Z"/>
          </g>
          <g id="_Repetição_radial_-6" data-name=" Repetição radial -6">
            <path class="cls-4" d="M57.5-40.7c7,18.9,16.7,52.1,16.7,94.8s-2.3,55.5-16.7,94.8c-7-18.9-16.7-52.1-16.7-94.8S43-1.4,57.5-40.7Z"/>
          </g>
          <g id="_Repetição_radial_-7" data-name=" Repetição radial -7">
            <path class="cls-4" d="M87.9-43.9c.8,20.1-.1,54.8-13.3,95.3-6.3,19.5-19.2,52.1-45.1,85-.8-20.1.1-54.8,13.3-95.3,6.3-19.5,19.2-52.1,45.1-85Z"/>
          </g>
          <g id="_Repetição_radial_-8" data-name=" Repetição radial -8">
            <path class="cls-4" d="M117.8-37.4c-5.4,19.4-17,52-42,86.6-12,16.6-34.3,43.5-69.1,66.8,5.4-19.4,17-52,42-86.6C60.8,12.8,83.1-14.2,117.8-37.4Z"/>
          </g>
          <g id="_Repetição_radial_-9" data-name=" Repetição radial -9">
            <path class="cls-4" d="M144.3-22c-11.1,16.8-32.2,44.2-66.6,69.3-16.5,12.1-46.1,30.8-86.3,42.1C2.6,72.6,23.6,45.2,58,20.1c16.5-12.1,46.1-30.8,86.3-42.1Z"/>
          </g>
          <g id="_Repetição_radial_-10" data-name=" Repetição radial -10">
            <path class="cls-4" d="M164.7.8c-15.8,12.5-44.2,32.1-84.7,45.3-19.5,6.3-53.3,15-95,13.3C.8,46.9,29.2,27.3,69.7,14.1,89.1,7.8,123-.9,164.7.8Z"/>
          </g>
          <g id="_Repetição_radial_-11" data-name=" Repetição radial -11">
            <path class="cls-4" d="M177.1,28.9c-18.8,7-51.9,16.8-94.5,16.8s-55.3-2.3-94.5-16.8C7,21.9,40.1,12.1,82.6,12.1s55.3,2.3,94.5,16.8Z"/>
          </g>
          <g id="_Repetição_radial_-12" data-name=" Repetição radial -12">
            <path class="cls-4" d="M180.2,59.4c-20.1.8-54.6-.1-95-13.3C65.8,39.7,33.3,26.8.5.8,20.6,0,55.1.9,95.6,14.1c19.4,6.3,51.9,19.3,84.7,45.3h0Z"/>
          </g>
          <g id="_Repetição_radial_-13" data-name=" Repetição radial -13">
            <path class="cls-4" d="M173.8,89.4c-19.3-5.5-51.9-17-86.3-42.1C71,35.2,44.1,12.8,20.9-22c19.3,5.5,51.9,17,86.3,42.1,16.5,12.1,43.4,34.4,66.6,69.3h0Z"/>
          </g>
          <g id="_Repetição_radial_-14" data-name=" Repetição radial -14">
            <path class="cls-4" d="M158.5,115.9c-16.7-11.2-44.1-32.3-69.1-66.8-12-16.6-30.7-46.2-42-86.6C64.1-26.2,91.5-5.2,116.5,29.4c12,16.6,30.7,46.2,42,86.6Z"/>
          </g>
          <g id="_Repetição_radial_-15" data-name=" Repetição radial -15">
            <path class="cls-4" d="M135.7,136.4c-12.4-15.8-32-44.4-45.1-85-6.3-19.5-14.9-53.5-13.3-95.3,12.4,15.8,32,44.4,45.1,85,6.3,19.5,14.9,53.5,13.3,95.3Z"/>
          </g>
          <g id="_Repetição_radial_-16" data-name=" Repetição radial -16">
            <path class="cls-4" d="M107.7,148.9c-7-18.9-16.7-52.1-16.7-94.8s2.3-55.5,16.7-94.8c7,18.9,16.7,52.1,16.7,94.8s-2.3,55.5-16.7,94.8Z"/>
          </g>
          <g id="_Repetição_radial_-17" data-name=" Repetição radial -17">
            <path class="cls-4" d="M77.3,152c-.8-20.1.1-54.8,13.3-95.3,6.3-19.5,19.2-52.1,45.1-85,.8,20.1-.1,54.8-13.3,95.3-6.3,19.5-19.2,52.1-45.1,85Z"/>
          </g>
          <g id="_Repetição_radial_-18" data-name=" Repetição radial -18">
            <path class="cls-4" d="M47.4,145.6c5.4-19.4,17-52,42-86.6,12-16.6,34.3-43.5,69.1-66.8-5.4,19.4-17,52-42,86.6-12,16.6-34.3,43.5-69.1,66.8Z"/>
          </g>
          <g id="_Repetição_radial_-19" data-name=" Repetição radial -19">
            <path class="cls-4" d="M20.9,130.2c11.1-16.8,32.2-44.2,66.6-69.3,16.5-12.1,46.1-30.8,86.3-42.1-11.1,16.8-32.2,44.2-66.6,69.3-16.5,12.1-46.1,30.8-86.3,42.1Z"/>
          </g>
          <g id="_Repetição_radial_-20" data-name=" Repetição radial -20">
            <path class="cls-4" d="M.5,107.3c15.8-12.5,44.2-32.1,84.7-45.3,19.4-6.3,53.3-15,95-13.3-15.8,12.5-44.2,32.1-84.7,45.3-19.5,6.3-53.3,15-95,13.3Z"/>
          </g>
        </g>
      </g>
    </g>
  </g>
</svg>