<?xml version="1.0" encoding="UTF-8"?>
<svg id="Camada_2" data-name="Camada 2" xmlns="http://www.w3.org/2000/svg" xmlns:xlink="http://www.w3.org/1999/xlink" viewBox="0 0 149 149">
  <defs>
    <style>
      .cls-1 {
        fill: #000;
      }

      .cls-1, .cls-2, .cls-3 {
        stroke-width: 0px;
      }

      .cls-2, .cls-4 {
        fill: none;
      }

      .cls-5 {
        clip-path: url(#clippath-1);
      }

      .cls-6, .cls-3 {
        fill: #fff;
      }

      .cls-7 {
        clip-path: url(#clippath);
      }

      .cls-4 {
        stroke: #fff;
        stroke-miterlimit: 10;
        stroke-width: .25px;
      }
    </style>
    <clipPath id="clippath">
      <rect class="cls-3" x="0" y="0" width="149" height="149" rx="74.5" ry="74.5"/>
    </clipPath>
    <clipPath id="clippath-1">
      <rect class="cls-2" x="0" y="0" width="149" height="149" rx="74.5" ry="74.5"/>
    </clipPath>
  </defs>
  <g id="Camada_1-2" data-name="Camada 1">
    <g>
      <rect class="cls-6" x="0" y="0" width="149" height="149" rx="74.5" ry="74.5"/>
      <g class="cls-7">
        <g>
          <g>
            <path class="cls-1" d="M119.08,89.73c6.84,0,12.68,2.64,17.52,7.91,4.83,5.28,7.25,11.67,7.25,19.18h7.25c0,9.76-3.15,18.06-9.44,24.91-6.29,6.84-13.82,10.27-22.57,10.27-36.69-.56-73.39-1.11-110.08-1.67-1.67-8.15-3.33-16.29-5-24.44,38.36.4,76.72.8,115.08,1.2,2.52,0,4.68-1.01,6.49-3.03,1.81-2.02,2.72-4.43,2.72-7.24s-.91-5.19-2.72-7.15c-1.81-1.96-3.98-2.95-6.49-2.95h-24.61c-8.76,0-16.28-3.45-22.57-10.35-6.29-6.9-9.44-15.17-9.44-24.82h14.95c.2,4.83,2.54,9.06,7.02,12.71,4.48,3.65,8.98,5.47,13.51,5.47h21.14ZM99.45,84.18c-2.92,0-5.66-.81-8.23-2.44-2.57-1.63-4.58-3.81-6.04-6.56-1.46-2.75-2.19-5.81-2.19-9.17h-15.55c0-9.65,3.15-17.89,9.44-24.74,6.29-6.84,13.82-10.27,22.57-10.27h55.87l-22.35,24.91h-33.52c-2.52,0-4.68.98-6.49,2.94-1.81,1.96-2.72,4.35-2.72,7.15,0,1.91.4,3.65,1.21,5.22.8,1.57,1.94,2.81,3.4,3.7,1.46.9,2.99,1.35,4.61,1.35h24.61c3.42,0,7.02.93,10.8,2.78s7.27,4.35,10.49,7.49c7.15,7.29,10.72,15.6,10.72,24.91h-6.79c-.3-7.07-3.15-13.38-8.53-18.93-5.39-5.55-10.95-8.33-16.69-8.33h-24.61Z"/>
            <path class="cls-1" d="M48.58,17.41v41.49h10.56c-.11,6.14-1.25,12.02-3.41,17.65-2.16,5.63-5.14,10.65-8.94,15.06-3.81,4.41-8.26,8.17-13.37,11.29-8.41,4.91-17.54,7.36-27.42,7.36-13.86,0-25.89-4.63-36.11-13.89L-1.33,84.17c2.38.67,4.83,1,7.32,1,7.61,0,14.08-2.65,19.42-7.95,5.34-5.3,8.01-11.63,8.01-18.99V17.41h15.16ZM33.42-1.66h25.72v56.05h-5.96V12.9h-19.76V-1.66Z"/>
            <polygon class="cls-3" points="83.95 62.47 81.29 62.47 78.94 61.7 76.72 60.21 75.11 58.09 74.25 55.41 74.24 52.74 75.06 50.2 76.62 48.05 78.77 46.49 81.28 45.67 83.94 45.66 86.47 46.49 88.61 48.05 90.17 50.21 90.99 52.74 90.99 55.4 90.17 57.93 88.61 60.08 86.47 61.65 83.95 62.47"/>
          </g>
          <g class="cls-5">
            <g>
              <g id="_Repetição_radial_" data-name="&amp;lt;Repetição radial&amp;gt;">
                <path class="cls-4" d="M-11.86,79.26c18.83-6.98,51.94-16.8,94.48-16.8,20.45,0,55.29,2.27,94.48,16.8-18.83,6.98-51.94,16.8-94.48,16.8-20.45,0-55.29-2.27-94.48-16.8Z"/>
              </g>
              <g id="_Repetição_radial_-2" data-name="&amp;lt;Repetição radial&amp;gt;">
                <path class="cls-4" d="M-15,48.74c20.06-.8,54.57.13,95.03,13.32,19.45,6.34,51.89,19.3,84.68,45.27-20.06.8-54.57-.13-95.03-13.32-19.45-6.34-51.89-19.3-84.68-45.27Z"/>
              </g>
              <g id="_Repetição_radial_-3" data-name="&amp;lt;Repetição radial&amp;gt;">
                <path class="cls-4" d="M-8.58,18.74c19.33,5.46,51.86,17.04,86.28,42.12,16.54,12.06,43.4,34.44,66.6,69.3-19.33-5.46-51.86-17.04-86.28-42.12C41.47,75.98,14.61,53.6-8.58,18.74Z"/>
              </g>
              <g id="_Repetição_radial_-4" data-name="&amp;lt;Repetição radial&amp;gt;">
                <path class="cls-4" d="M6.76-7.81C23.47,3.37,50.84,24.48,75.85,59c12.02,16.59,30.67,46.21,41.99,86.56-16.7-11.18-44.08-32.28-69.08-66.81C36.74,62.16,18.08,32.54,6.76-7.81Z"/>
              </g>
              <g id="_Repetição_radial_-5" data-name="&amp;lt;Repetição radial&amp;gt;">
                <path class="cls-4" d="M29.54-28.29c12.44,15.81,31.97,44.37,45.12,84.96,6.32,19.51,14.94,53.46,13.27,95.34-12.44-15.81-31.97-44.37-45.12-84.96-6.32-19.51-14.94-53.46-13.27-95.34Z"/>
              </g>
              <g id="_Repetição_radial_-6" data-name="&amp;lt;Repetição radial&amp;gt;">
                <path class="cls-4" d="M57.5-40.72c6.96,18.9,16.74,52.11,16.74,94.79,0,20.51-2.26,55.47-16.74,94.79-6.96-18.9-16.74-52.11-16.74-94.79,0-20.51,2.26-55.47,16.74-94.79Z"/>
              </g>
              <g id="_Repetição_radial_-7" data-name="&amp;lt;Repetição radial&amp;gt;">
                <path class="cls-4" d="M87.93-43.87c.8,20.13-.13,54.75-13.27,95.34-6.32,19.51-19.24,52.06-45.12,84.96-.8-20.13.13-54.75,13.27-95.34,6.32-19.51,19.24-52.06,45.12-84.96Z"/>
              </g>
              <g id="_Repetição_radial_-8" data-name="&amp;lt;Repetição radial&amp;gt;">
                <path class="cls-4" d="M117.83-37.43c-5.44,19.39-16.98,52.03-41.99,86.56-12.02,16.59-34.33,43.54-69.08,66.81,5.44-19.39,16.98-52.03,41.99-86.56C60.77,12.79,83.08-14.16,117.83-37.43Z"/>
              </g>
              <g id="_Repetição_radial_-9" data-name="&amp;lt;Repetição radial&amp;gt;">
                <path class="cls-4" d="M144.29-22.03c-11.15,16.76-32.18,44.22-66.6,69.3-16.54,12.06-46.06,30.77-86.28,42.12C2.56,72.64,23.6,45.18,58.01,20.09c16.54-12.06,46.06-30.77,86.28-42.12Z"/>
              </g>
              <g id="_Repetição_radial_-10" data-name="&amp;lt;Repetição radial&amp;gt;">
                <path class="cls-4" d="M164.71.81c-15.76,12.48-44.22,32.08-84.68,45.27-19.45,6.34-53.28,14.99-95.03,13.32C.76,46.91,29.22,27.32,69.68,14.13,89.13,7.79,122.97-.86,164.71.81Z"/>
              </g>
              <g id="_Repetição_radial_-11" data-name="&amp;lt;Repetição radial&amp;gt;">
                <path class="cls-4" d="M177.1,28.87c-18.83,6.98-51.94,16.8-94.48,16.8-20.45,0-55.29-2.27-94.48-16.8C6.97,21.89,40.08,12.07,82.62,12.07c20.45,0,55.29,2.27,94.48,16.8Z"/>
              </g>
              <g id="_Repetição_radial_-12" data-name="&amp;lt;Repetição radial&amp;gt;">
                <path class="cls-4" d="M180.24,59.39c-20.06.8-54.57-.13-95.03-13.32C65.76,39.74,33.32,26.78.52.81,20.59.01,55.09.94,95.55,14.13c19.45,6.34,51.89,19.3,84.68,45.27Z"/>
              </g>
              <g id="_Repetição_radial_-13" data-name="&amp;lt;Repetição radial&amp;gt;">
                <path class="cls-4" d="M173.82,89.4c-19.33-5.46-51.86-17.04-86.28-42.12C71,35.21,44.13,12.83,20.94-22.03c19.33,5.46,51.86,17.04,86.28,42.12,16.54,12.06,43.4,34.44,66.6,69.3Z"/>
              </g>
              <g id="_Repetição_radial_-14" data-name="&amp;lt;Repetição radial&amp;gt;">
                <path class="cls-4" d="M158.47,115.94c-16.7-11.18-44.08-32.28-69.08-66.81-12.02-16.59-30.67-46.21-41.99-86.56C64.1-26.25,91.48-5.15,116.48,29.38c12.02,16.59,30.67,46.21,41.99,86.56Z"/>
              </g>
              <g id="_Repetição_radial_-15" data-name="&amp;lt;Repetição radial&amp;gt;">
                <path class="cls-4" d="M135.7,136.43c-12.44-15.81-31.97-44.37-45.12-84.96-6.32-19.51-14.94-53.46-13.27-95.34C89.75-28.05,109.28.5,122.43,41.09c6.32,19.51,14.94,53.46,13.27,95.34Z"/>
              </g>
              <g id="_Repetição_radial_-16" data-name="&amp;lt;Repetição radial&amp;gt;">
                <path class="cls-4" d="M107.73,148.85c-6.96-18.9-16.74-52.11-16.74-94.79,0-20.51,2.26-55.47,16.74-94.79,6.96,18.9,16.74,52.11,16.74,94.79,0,20.51-2.26,55.47-16.74,94.79Z"/>
              </g>
              <g id="_Repetição_radial_-17" data-name="&amp;lt;Repetição radial&amp;gt;">
                <path class="cls-4" d="M77.31,152c-.8-20.13.13-54.75,13.27-95.34,6.32-19.51,19.24-52.06,45.12-84.96.8,20.13-.13,54.75-13.27,95.34-6.32,19.51-19.24,52.06-45.12,84.96Z"/>
              </g>
              <g id="_Repetição_radial_-18" data-name="&amp;lt;Repetição radial&amp;gt;">
                <path class="cls-4" d="M47.4,145.56c5.44-19.39,16.98-52.03,41.99-86.56,12.02-16.59,34.33-43.54,69.08-66.81-5.44,19.39-16.98,52.03-41.99,86.56-12.02,16.59-34.33,43.54-69.08,66.81Z"/>
              </g>
              <g id="_Repetição_radial_-19" data-name="&amp;lt;Repetição radial&amp;gt;">
                <path class="cls-4" d="M20.94,130.16c11.15-16.76,32.18-44.22,66.6-69.3,16.54-12.06,46.06-30.77,86.28-42.12-11.15,16.76-32.18,44.22-66.6,69.3-16.54,12.06-46.06,30.77-86.28,42.12Z"/>
              </g>
              <g id="_Repetição_radial_-20" data-name="&amp;lt;Repetição radial&amp;gt;">
                <path class="cls-4" d="M.52,107.32c15.76-12.48,44.22-32.08,84.68-45.27,19.45-6.34,53.28-14.99,95.03-13.32-15.76,12.48-44.22,32.08-84.68,45.27-19.45,6.34-53.28,14.99-95.03,13.32Z"/>
              </g>
            </g>
          </g>
        </g>
      </g>
    </g>
  </g>
</svg>